Coordinates
version=1
nRows=13
nColumns=22
inDegrees=yes

Units are S.I. units (second, meters, Newtons, ...)
If the header above contains a line with 'inDegrees', this indicates whether rotational values are in degrees (yes) or radians (no).

endheader
time	pelvis_tilt	pelvis_list	pelvis_rotation	pelvis_tx	pelvis_ty	pelvis_tz	hip_flexion_r	hip_adduction_r	hip_rotation_r	knee_angle_r	ankle_angle_r	subtalar_angle_r	hip_flexion_l	hip_adduction_l	hip_rotation_l	knee_angle_l	ankle_angle_l	subtalar_angle_l	lumbar_extension	lumbar_bending	lumbar_rotation
      2.55000000	     -9.36507698	     -0.15042572	    -51.91647809	     -0.11356394	      0.84093125	      0.19877955	    -14.69759509	      1.84675840	     16.30681938	    -15.63334057	     12.15596625	      3.92750780	     35.99265876	    -15.68692565	     -2.44232117	    -19.61224435	      5.27865609	      5.13564482	      0.04308426	      4.54407035	     23.81166948
      2.56000000	     -9.20768388	      0.10926192	    -52.01906159	     -0.10267546	      0.84071479	      0.20466662	    -14.71536402	      1.29271271	     16.51670003	    -16.54407134	     10.85964756	      4.63092372	     36.13228356	    -15.18828537	     -2.33917716	    -21.11042434	      4.55909619	      5.28673330	      0.15277774	      4.11499625	     23.56972181
      2.57000000	     -8.97650620	      0.38279930	    -52.04563277	     -0.09162382	      0.84076941	      0.21056491	    -14.68649816	      0.72629623	     16.59494923	    -17.57816030	      9.40151883	      5.26329247	     36.23650778	    -14.58306562	     -2.20427118	    -22.62620602	      3.97977079	      5.41778034	      0.22598988	      3.59823632	     23.26563352
      2.58000000	     -8.68555649	      0.65170963	    -52.01886164	     -0.08045741	      0.84111916	      0.21652320	    -14.59830255	      0.17053951	     16.56551347	    -18.76254458	      7.74578040	      5.90776610	     36.25918129	    -13.90597327	     -2.06013799	    -24.10805596	      3.63529963	      5.47833179	      0.25882053	      3.02120047	     22.92095114
      2.59000000	     -8.34838997	      0.91211854	    -51.91125656	     -0.06916776	      0.84173756	      0.22249627	    -14.43480251	     -0.35872830	     16.35535105	    -20.11017553	      5.92822117	      6.37272831	     36.20115142	    -13.14870011	     -1.88762051	    -25.52672555	      3.47263545	      5.43928839	      0.25953698	      2.40128488	     22.52260769
      2.60000000	     -8.00689106	      1.15712669	    -51.77883311	     -0.05784460	      0.84260776	      0.22852278	    -14.15064288	     -0.83809821	     16.07753733	    -21.64184189	      3.91629273	      6.94913963	     36.03617141	    -12.37702260	     -1.72433805	    -26.81541172	      3.59373092	      5.22318728	      0.25211753	      1.78805704	     22.12681085
      2.61000000	     -7.68642403	      1.36863275	    -51.59210819	     -0.04650458	      0.84367716	      0.23448414	    -13.71943154	     -1.23700282	     15.65741264	    -23.38863510	      1.77092191	      7.28661359	     35.78698617	    -11.59860362	     -1.53269585	    -27.96986256	      3.89846526	      4.96023588	      0.23096076	      1.22475534	     21.71305397
      2.62000000	     -7.42098069	      1.55508378	    -51.41448876	     -0.03524523	      0.84489299	      0.24038416	    -13.08620595	     -1.55550640	     15.20831458	    -25.36569249	     -0.47892417	      7.63218257	     35.45793873	    -10.86851637	     -1.36274561	    -28.96735436	      4.43416099	      4.51497234	      0.22921442	      0.74812412	     21.33730551
      2.63000000	     -7.21999079	      1.71250896	    -51.26107360	     -0.02415498	      0.84621350	      0.24617635	    -12.23084400	     -1.79169618	     14.74266211	    -27.58271132	     -2.78957614	      7.87447594	     35.05468674	    -10.20851735	     -1.22569342	    -29.79811535	      5.14172070	      4.02098035	      0.24087268	      0.37026369	     21.01887840
      2.64000000	     -7.08562916	      1.84850653	    -51.16389407	     -0.01330437	      0.84758941	      0.25181984	    -11.12471910	     -1.96532338	     14.26976446	    -30.04882623	     -5.11327281	      8.03447465	     34.59045367	     -9.63613621	     -1.15734207	    -30.47408283	      5.99237094	      3.43404568	      0.26969820	      0.09777709	     20.78547139
      2.65000000	     -6.99213125	      1.97672033	    -51.13242947	     -0.00272264	      0.84901038	      0.25729421	     -9.77436337	     -2.11853881	     13.77669000	    -32.74471692	     -7.43416768	      8.09573169	     34.04971134	     -9.12924759	     -1.16928947	    -30.97602071	      6.91623375	      2.86177667	      0.30678579	     -0.09877195	     20.63420045
      2.66000000	     -6.92664272	      2.11268285	    -51.16374724	      0.00756149	      0.85043267	      0.26256887	     -8.18620550	     -2.28341231	     13.23533832	    -35.63357917	     -9.71486804	      8.06657929	     33.45475289	     -8.67328577	     -1.27596286	    -31.32486443	      7.88348724	      2.26368698	      0.35039496	     -0.24298689	     20.55634738
      2.67000000	     -6.87759480	      2.27583568	    -51.24080419	      0.01758181	      0.85183200	      0.26765425	     -6.38726260	     -2.49148282	     12.62450423	    -38.64270224	    -11.90374359	      7.94786556	     32.81259062	     -8.24264522	     -1.48689406	    -31.51102965	      8.86855478	      1.62438328	      0.41457347	     -0.35923740	     20.50052046
